<svg xmlns="http://www.w3.org/2000/svg" viewBox="0 0 80 56" fill="none">
  <!-- Cloudera cloud mark — orange on transparent -->
  <path fill="#F96702" d="
    M 14 48
    C  6 48  0 42  0 34
    C  0 27  5 21 12 19.5
    C 11 8  20 0  31 0
    C 37 0  43 3  47 8
    C 50 3  56 0  63 0
    C 72 0  79 7  79 16
    C 79 17 79 18 78 19
    C 79 20 80 22 80 24
    C 80 33 73 40 64 40
    L 14 48 Z
  "/>
  <path fill="#F96702" d="
    M 14 48
    C  6 48  0 42  0 34
    C  0 27  5 21 12 19.5
    C 12 19 12 18 12 17
    C 12  8 20  1 30  1
    C 36  1 42  4 46  9
    C 49  4 55  1 62  1
    C 71  1 78  8 78 17
    C 78 18 78 19 77 20
    C 78 22 78 24 78 26
    C 78 35 71 42 62 42
    L 16 42
    C 15 42 14 42 14 42 Z
  "/>
</svg>
